<svg width="38" height="38" fill="none" xmlns="http://www.w3.org/2000/svg"><path d="M35.031 1.188H12.47a1.787 1.787 0 00-1.781 1.78V9.5H1.78a.594.594 0 00-.593.594v23.75a.594.594 0 00.593.593h8.906v.594a1.786 1.786 0 001.782 1.782H35.03a1.786 1.786 0 001.782-1.782V2.97a1.786 1.786 0 00-1.782-1.781zM3.563 33.25H2.375V10.687h1.188V33.25zm1.187 0V10.687h13.063V33.25H4.75zm30.875 1.781a.594.594 0 01-.594.594H12.47a.594.594 0 01-.594-.594v-.593h6.531a.594.594 0 00.594-.594v-23.75a.594.594 0 00-.594-.594h-6.531V2.969a.594.594 0 01.594-.594h22.56a.594.594 0 01.594.594V35.03z" fill="#C80202"/><path d="M32.77 23.84a.594.594 0 00-.84 0l-4.617 4.618-2.1-2.099a.593.593 0 00-.84 0l-1.679 1.68a.594.594 0 000 .839l4.199 4.198a.594.594 0 00.84 0l6.717-6.717a.595.595 0 000-.84l-1.68-1.68zm-5.458 7.977l-3.358-3.36.84-.839 2.099 2.1a.594.594 0 00.84 0l4.617-4.619.84.84-5.877 5.878zM33.25 7.719V5.344a.594.594 0 00-.594-.594H14.844a.594.594 0 00-.594.594v2.375a.594.594 0 00.594.593h17.812a.594.594 0 00.594-.593zm-1.188-.594H15.439V5.937h16.624v1.188zm-9.499 3.563h2.375v1.187h-2.375v-1.188zm3.562 0h7.125v1.187h-7.125v-1.188zm-3.562 3.562h2.375v1.188h-2.375V14.25zm3.562 0h7.125v1.188h-7.125V14.25zm-3.562 3.563h2.375V19h-2.375v-1.188zm3.562 0h7.125V19h-7.125v-1.188zm-3.562 3.562h2.375v1.188h-2.375v-1.188zm3.562 0h7.125v1.188h-7.125v-1.188zM11.281 19a2.969 2.969 0 100 5.938 2.969 2.969 0 000-5.938zm0 4.75a1.782 1.782 0 110-3.564 1.782 1.782 0 010 3.564z" fill="#C80202"/><path d="M16.031 14.25a1.786 1.786 0 01-1.781-1.781.594.594 0 00-.594-.594h-4.75a.594.594 0 00-.594.594 1.786 1.786 0 01-1.78 1.781.594.594 0 00-.595.594v14.25a.594.594 0 00.594.593 1.786 1.786 0 011.782 1.782.594.594 0 00.593.593h4.75a.594.594 0 00.594-.593 1.786 1.786 0 011.781-1.782.594.594 0 00.594-.593v-14.25a.594.594 0 00-.594-.594zm-.593 14.31a2.973 2.973 0 00-2.316 2.315H9.44a2.975 2.975 0 00-2.316-2.316V15.38a2.973 2.973 0 002.316-2.316h3.68a2.973 2.973 0 002.316 2.315V28.56z" fill="#C80202"/></svg>