<svg width="37" height="37" fill="none" xmlns="http://www.w3.org/2000/svg"><g clip-path="url(#clip0)" fill="#C80202"><path d="M30.804 27.506a2.771 2.771 0 01-2.769-2.768 2.771 2.771 0 012.77-2.767 2.77 2.77 0 012.766 2.767 2.77 2.77 0 01-2.767 2.768zm0-4.09c-.73 0-1.323.594-1.323 1.322a1.323 1.323 0 002.645 0c0-.728-.593-1.321-1.322-1.321zM13.087 12.364V7.267h12.116a4.124 4.124 0 014.12 4.118 4.125 4.125 0 01-4.12 4.12h-4.98a.723.723 0 000 1.445h4.98a5.572 5.572 0 005.566-5.565 5.57 5.57 0 00-5.566-5.563H13.087v-5.1A.723.723 0 0012.364 0H.723C.323 0 0 .324 0 .723v11.64c0 .4.324.724.723.724h11.64c.4 0 .724-.324.724-.723zm-7.9-10.919H7.9v2.738l-.976-.601a.723.723 0 00-.758 0l-.977.601V1.445zm6.454 10.196H1.445V1.445h2.297v4.032a.723.723 0 001.102.615l1.7-1.046 1.698 1.046a.722.722 0 001.102-.615V1.445h2.297v10.196z"/><path d="M34.017 31.343c1.479-1.942 2.846-3.805 2.817-6.608a6.038 6.038 0 00-6.03-6.029 6.04 6.04 0 00-6.032 6.029c-.028 2.803 1.338 4.666 2.818 6.608-1.458.408-2.458 1.082-2.827 1.901H6.745a2.237 2.237 0 01-2.235-2.233 2.238 2.238 0 012.235-2.235h9.802c2.03 0 3.68-1.65 3.68-3.679 0-2.03-1.65-3.68-3.68-3.68h-9.16a2.236 2.236 0 01-2.234-2.234 2.236 2.236 0 012.233-2.233h6.348a.723.723 0 000-1.445H7.386a3.683 3.683 0 00-3.678 3.678 3.683 3.683 0 003.678 3.679h9.16a2.238 2.238 0 012.236 2.235 2.237 2.237 0 01-2.235 2.233H6.745a3.685 3.685 0 00-3.68 3.681 3.684 3.684 0 003.68 3.678h18.017c.28.626.926 1.171 1.89 1.578 1.12.472 2.595.733 4.152.733 1.556 0 3.03-.26 4.15-.734 1.32-.556 2.046-1.373 2.046-2.3 0-1.142-1.116-2.1-2.983-2.623zm-7.8-6.597v-.008a4.592 4.592 0 014.587-4.586 4.591 4.591 0 014.585 4.594c.025 2.378-1.206 3.994-2.63 5.864a199.23 199.23 0 01-1.598 1.923c-.125.144-.255.228-.357.232-.141-.005-.285-.147-.358-.23 0 0-1.446-1.727-1.594-1.92-1.428-1.872-2.66-3.489-2.635-5.869zm4.587 10.809c-3.075 0-4.753-1.05-4.753-1.588 0-.368.809-1.029 2.535-1.377l.766.889c.52.6 1.073.729 1.447.73h.01c.372-.002.925-.13 1.445-.73l.767-.889c1.725.348 2.534 1.01 2.534 1.377 0 .539-1.677 1.588-4.751 1.588z"/><path d="M16.256 16.227c0 .4.323.723.723.723h.002a.722.722 0 10-.003-1.445.722.722 0 00-.722.722z"/></g><defs><clipPath id="clip0"><path fill="#fff" d="M0 0h37v37H0z"/></clipPath></defs></svg>