<svg width="45" height="45" fill="none" xmlns="http://www.w3.org/2000/svg"><path d="M22.5 0C14.63 0 8.25 6.38 8.25 14.25c0 3.792 2.453 9.572 7.289 17.175l6.328 9.955a.75.75 0 001.266 0l6.329-9.955c4.835-7.604 7.288-13.383 7.288-17.175C36.75 6.38 30.37 0 22.5 0zm5.696 30.622L22.5 39.58l-5.696-8.958C12.123 23.26 9.75 17.752 9.75 14.25 9.758 7.212 15.462 1.508 22.5 1.5c7.038.008 12.742 5.712 12.75 12.75 0 3.503-2.373 9.01-7.054 16.372z" fill="#C80202"/><path d="M22.5 7.5a6.75 6.75 0 00-6.75 6.75c0 3.433 5.49 12.168 6.117 13.153a.75.75 0 001.266 0c.626-.985 6.117-9.72 6.117-13.153A6.75 6.75 0 0022.5 7.5zm0 18.08c-1.895-3.106-5.25-9.075-5.25-11.33A5.256 5.256 0 0122.5 9a5.256 5.256 0 015.25 5.25c0 2.256-3.355 8.224-5.25 11.33zm3.045 12.754l-.086 1.5c5.542.312 7.937 1.327 8.271 1.794-.47.695-4.47 1.872-11.23 1.872-6.76 0-10.76-1.176-11.23-1.875.334-.466 2.726-1.48 8.26-1.793l-.085-1.5c-2.916.168-9.695.818-9.695 3.293C9.75 44.289 17.765 45 22.5 45c4.735 0 12.75-.711 12.75-3.375 0-2.475-6.788-3.127-9.705-3.291z" fill="#C80202"/><path d="M22.5 10.5a3.75 3.75 0 100 7.5 3.75 3.75 0 000-7.5zm0 6a2.25 2.25 0 110-4.5 2.25 2.25 0 010 4.5z" fill="#C80202"/></svg>