<svg width="43" height="43" fill="none" xmlns="http://www.w3.org/2000/svg"><g clip-path="url(#clip0)" fill="#C80202"><path d="M38.465 2.09H10.66c-2.413 0-4.376 1.944-4.376 4.327L6.104 30.9H.679c-.384 0-.678.34-.678.724v3.37c0 3.154 2.524 5.734 5.57 5.876v.04h23.416v-.046c.174.008.28.046.399.046h.017a5.886 5.886 0 005.851-5.917V13.58h7.069c.384 0 .678-.348.678-.732V6.664a4.567 4.567 0 00-4.535-4.575zM5.875 39.517h-.004c-2.477 0-4.478-2.047-4.478-4.524v-2.7h22.109v2.689a5.894 5.894 0 001.72 4.182c.118.118.241.18.367.353H5.876zm27.985-4.524c0 2.477-1.981 4.524-4.46 4.524h-.014a4.525 4.525 0 01-4.491-4.535v-3.358a.721.721 0 00-.697-.724h-16.7l.179-24.48c0-1.619 1.338-2.94 2.983-2.94h24.518c-.794.871-1.318 1.973-1.318 3.202v28.31zm7.747-28.318v5.51h-6.354V6.681c0-1.743 1.45-3.2 3.192-3.2h.02a3.174 3.174 0 013.142 3.19v.005z"/><path d="M16.351 19.23l3.59 2.454a.686.686 0 00.779 0l3.58-2.454c1.243-.848 2.161-2.622 2.161-4.126v-4.966a.68.68 0 00-.371-.625l-5.467-2.69a.684.684 0 00-.608 0l-5.457 2.682a.68.68 0 00-.37.625v4.974c0 1.504.92 3.278 2.163 4.125zm-.77-8.665l4.743-2.34 4.744 2.347v4.532c0 1.05-.687 2.384-1.555 2.975l-3.197 2.186-3.184-2.186c-.868-.592-1.552-1.926-1.552-2.975v-4.539z"/><path d="M19.147 16.156c.13.132.307.207.493.208h.002a.697.697 0 00.492-.206l2.77-2.77a.697.697 0 10-.985-.986l-2.275 2.275-.91-.919a.697.697 0 10-.99.981l1.403 1.417zm9.839 7.52H12.273a.696.696 0 000 1.393h16.713a.696.696 0 000-1.393zm0 3.221H12.273a.696.696 0 100 1.393h16.713a.696.696 0 000-1.393z"/></g><defs><clipPath id="clip0"><path fill="#fff" d="M0 0h43v43H0z"/></clipPath></defs></svg>