<svg width="43" height="43" fill="none" xmlns="http://www.w3.org/2000/svg"><path d="M30.738 33.258a.84.84 0 10.001 1.68.84.84 0 000-1.68z" fill="#C80202"/><path d="M32.806 30.542l-3.992-1.33-1.433-2.866a9.2 9.2 0 002.49-4.867l.179-1.07h1.528c1.39 0 2.52-1.131 2.52-2.52v-5.291C34.098 5.65 28.446 0 21.5 0 14.536 0 8.902 5.635 8.902 12.598v5.29c0 1.095.703 2.03 1.68 2.376v.984c0 1.39 1.13 2.52 2.52 2.52h.737a9.11 9.11 0 001.779 2.58l-1.432 2.864-3.992 1.33c-4.642 1.548-8.01 6.434-8.01 11.618 0 .464.376.84.84.84h36.953a.84.84 0 00.84-.84c0-5.184-3.37-10.07-8.01-11.618zm-.388-12.653a.84.84 0 01-.84.84h-1.282c.214-1.654.356-3.414.413-5.147l.005-.145h1.704v4.452zm-20.996.84a.84.84 0 01-.84-.84v-4.451h1.705l.009.264v.009c.059 1.686.2 3.4.408 5.017h-1.282zm1.68 3.359a.84.84 0 01-.84-.84v-.84h.688l.179 1.072c.034.203.076.406.124.608h-.151zm-.839-10.33h-1.65C11.04 6.129 15.738 1.68 21.5 1.68c5.738 0 10.456 4.449 10.886 10.078h-1.65c-.06-4.638-3.837-8.399-8.484-8.399h-1.504c-4.647 0-8.425 3.76-8.485 8.399zm8.485-6.719h1.504c3.763 0 6.809 3.078 6.807 6.837 0 .264-.003.495-.007.704v.008l-1.05-.15a13.495 13.495 0 01-7.588-3.794.84.84 0 00-.594-.246 7.598 7.598 0 00-5.841 2.764c.351-3.42 3.242-6.123 6.77-6.123zm-5.753 17.049c-.42-1.399-.902-5.514-1.008-8.151l1.13-1.507a5.911 5.911 0 014.371-2.342 15.19 15.19 0 008.276 4.013l1.236.177a51.668 51.668 0 01-.493 5.134c-.077.52-.138.856-.293 1.791-.445 2.668-2.435 5.08-5.063 5.737-1.081.27-2.22.27-3.302 0-1.64-.41-3.145-1.545-4.116-3.172h1.712a2.524 2.524 0 002.375 1.68h1.68a2.519 2.519 0 100-5.04h-1.68a2.52 2.52 0 00-2.376 1.68h-2.45zm4.755 6.552a8.493 8.493 0 003.123.07l-1.484 1.57-1.64-1.64zm.485 2.86l-2.664 2.818a32 32 0 01-1.88-4.36l1-2.001 3.544 3.544zm5.932-3.828l1.142 2.285a31.99 31.99 0 01-1.88 4.362l-2.851-2.851 3.589-3.796zm-7.187-4.744a.84.84 0 01.84-.84h1.68a.84.84 0 010 1.68h-1.68a.84.84 0 01-.84-.84zM3.897 41.32c.333-4.16 3.102-7.942 6.828-9.184l3.535-1.179a33.665 33.665 0 002.39 5.186l.005.008a33.661 33.661 0 002.3 3.51l1.032 1.66H3.897zm17.603-.748l-1.139-1.829a.873.873 0 00-.04-.06 32.022 32.022 0 01-1.893-2.827l2.995-3.167 3.156 3.156a31.992 31.992 0 01-1.899 2.838c-.041.055.017-.031-1.18 1.889zm1.513.748l1.033-1.658a33.676 33.676 0 002.315-3.539l.012-.022s0-.002.002-.003a33.644 33.644 0 002.365-5.14l3.535 1.178C36 33.377 38.77 37.16 39.103 41.32h-16.09z" fill="#C80202"/><path d="M36.58 37.921a8.397 8.397 0 00-2.378-2.886.84.84 0 10-1.025 1.332 6.707 6.707 0 011.9 2.305.84.84 0 001.502-.75z" fill="#C80202"/></svg>