<svg width="22" height="20" fill="none" xmlns="http://www.w3.org/2000/svg"><path d="M1.56 2.094C2.598 1.079 4.034.57 5.867.57c.508 0 1.026.088 1.553.264.528.176 1.02.414 1.474.712.454.3.844.58 1.172.841.327.262.638.54.933.835.295-.294.606-.573.933-.835.328-.261.718-.542 1.172-.84A6.286 6.286 0 0114.58.834 4.897 4.897 0 0116.133.57c1.833 0 3.27.508 4.309 1.523C21.48 3.109 22 4.516 22 6.317a5.36 5.36 0 01-.289 1.694 7.427 7.427 0 01-.656 1.486c-.246.409-.524.808-.835 1.196a12.63 12.63 0 01-.682.804 4.073 4.073 0 01-.337.32l-7.66 7.39a.735.735 0 01-.541.222.735.735 0 01-.54-.222l-7.65-7.366C.937 9.967 0 8.126 0 6.317c0-1.801.52-3.208 1.56-4.223zm2.32 8.593L11 17.55l7.133-6.875c1.53-1.53 2.295-2.983 2.295-4.358 0-.663-.088-1.248-.264-1.756-.176-.507-.4-.91-.675-1.209a3.243 3.243 0 00-1-.73 4.435 4.435 0 00-1.154-.381 7.031 7.031 0 00-1.203-.098c-.426 0-.884.104-1.376.313-.49.209-.943.47-1.356.786-.413.315-.767.61-1.062.883-.295.275-.54.526-.736.756a.736.736 0 01-.602.27.736.736 0 01-.602-.27 9.508 9.508 0 00-.736-.756A14.384 14.384 0 008.6 3.242a6.275 6.275 0 00-1.357-.786c-.49-.209-.95-.313-1.375-.313-.425 0-.826.033-1.203.098a4.431 4.431 0 00-1.154.38 3.243 3.243 0 00-1 .731c-.275.299-.5.702-.676 1.21-.176.507-.264 1.092-.264 1.755 0 1.375.77 2.832 2.309 4.37z" fill="#C80202"/></svg>