<svg width="39" height="39" fill="none" xmlns="http://www.w3.org/2000/svg"><g clip-path="url(#clip0)" fill="#F3F3F3"><path d="M38.962 11.466c-.092-2.072-.427-3.497-.907-4.731A9.517 9.517 0 0035.8 3.276a9.597 9.597 0 00-3.451-2.247c-1.242-.48-2.66-.816-4.731-.907C25.53.022 24.868 0 19.572 0c-5.295 0-5.957.023-8.037.114-2.073.092-3.497.427-4.731.907a9.516 9.516 0 00-3.46 2.255 9.602 9.602 0 00-2.247 3.451C.617 7.97.282 9.387.19 11.458c-.099 2.088-.122 2.75-.122 8.046 0 5.295.023 5.958.115 8.037.091 2.073.427 3.497.907 4.732a9.617 9.617 0 002.255 3.459 9.599 9.599 0 003.45 2.247c1.243.48 2.66.815 4.732.907 2.08.091 2.743.114 8.038.114s5.958-.023 8.037-.114c2.073-.092 3.497-.427 4.732-.907a9.975 9.975 0 005.706-5.706c.48-1.242.815-2.66.907-4.732.091-2.08.114-2.742.114-8.037 0-5.295-.008-5.958-.1-8.038zM35.45 27.39c-.084 1.905-.404 2.933-.67 3.619a6.47 6.47 0 01-3.704 3.703c-.685.267-1.721.586-3.618.67-2.057.092-2.674.114-7.878.114-5.204 0-5.828-.022-7.878-.114-1.905-.084-2.933-.404-3.619-.67a6.001 6.001 0 01-2.24-1.456 6.063 6.063 0 01-1.455-2.24c-.266-.685-.586-1.721-.67-3.618-.092-2.057-.114-2.674-.114-7.878 0-5.204.022-5.828.114-7.878.084-1.904.404-2.933.67-3.618a5.928 5.928 0 011.463-2.24 6.054 6.054 0 012.24-1.456c.686-.266 1.722-.586 3.619-.67 2.057-.091 2.674-.114 7.877-.114 5.212 0 5.829.023 7.878.114 1.905.084 2.933.404 3.62.67a5.997 5.997 0 012.239 1.455 6.062 6.062 0 011.455 2.24c.267.686.587 1.722.67 3.62.092 2.056.115 2.673.115 7.877s-.023 5.813-.114 7.87z"/><path d="M19.572 9.485c-5.53 0-10.018 4.487-10.018 10.018 0 5.532 4.487 10.019 10.018 10.019 5.532 0 10.019-4.487 10.019-10.019 0-5.53-4.487-10.018-10.019-10.018zm0 16.517a6.5 6.5 0 010-12.997 6.5 6.5 0 010 12.997zM32.326 9.09a2.339 2.339 0 11-4.678 0 2.339 2.339 0 014.678 0z"/></g><defs><clipPath id="clip0"><path fill="#fff" d="M0 0h39v39H0z"/></clipPath></defs></svg>