<svg version="1.1" id="Слой_1" xmlns="http://www.w3.org/2000/svg" x="0" y="0" viewBox="0 0 23 23" xml:space="preserve"><style>.st1{fill:#c1c1c1}</style><defs><path id="SVGID_1_" d="M0 0h23v23H0z"/></defs><clipPath id="SVGID_2_"/><g clip-path="url(#SVGID_2_)"><path class="st1" d="M23 6.8c-.1-1.2-.3-2.1-.5-2.8-.3-.8-.7-1.5-1.3-2-.6-.6-1.3-1-2-1.3-.7-.3-1.6-.5-2.8-.5-1.3-.2-1.7-.2-4.9-.2C8.4 0 8 0 6.8.1 5.6.1 4.7.3 4 .6c-.8.3-1.5.7-2 1.3-.6.6-1 1.3-1.3 2-.3.8-.5 1.6-.6 2.9C.1 8 0 8.4 0 11.5s0 3.5.1 4.7c.1 1.2.3 2.1.5 2.8.3.8.7 1.5 1.3 2 .6.6 1.3 1 2 1.3.7.3 1.6.5 2.8.5 1.3.2 1.7.2 4.8.2 3.1 0 3.5 0 4.7-.1 1.2-.1 2.1-.3 2.8-.5 1.5-.6 2.8-1.8 3.4-3.4.3-.7.5-1.6.5-2.8.1-1.2.1-1.6.1-4.7V6.8zm-2.1 9.4c0 1.1-.2 1.7-.4 2.1-.4 1-1.2 1.8-2.2 2.2-.4.2-1 .3-2.1.4-1.2.1-1.6.1-4.6.1-3.1 0-3.4 0-4.6-.1-1.1 0-1.7-.2-2.1-.4-.5-.2-1-.5-1.3-.9-.4-.4-.7-.8-.9-1.3-.2-.4-.3-1-.4-2.1-.1-1.2-.1-1.6-.1-4.6 0-3.1 0-3.4.1-4.6 0-1.1.2-1.7.4-2.1.2-.5.5-1 .9-1.3.2-.6.7-.9 1.2-1 .4-.2 1-.3 2.1-.4 1.2-.1 1.6-.1 4.6-.1 3.1 0 3.4 0 4.6.1 1.1 0 1.7.2 2.1.4.5.2 1 .5 1.3.9.4.4.7.8.9 1.3.2.4.3 1 .4 2.1.2 1.2.2 1.5.2 4.6 0 3.1 0 3.4-.1 4.7z"/><path class="st1" d="M11.5 5.6c-3.3 0-5.9 2.6-5.9 5.9 0 3.3 2.6 5.9 5.9 5.9 3.3 0 5.9-2.6 5.9-5.9.1-3.3-2.6-5.9-5.9-5.9zm0 9.7c-2.1 0-3.8-1.7-3.8-3.8 0-2.1 1.7-3.8 3.8-3.8 2.1 0 3.8 1.7 3.8 3.8.1 2.1-1.6 3.8-3.8 3.8zM17.7 4c-.8 0-1.4.6-1.4 1.4 0 .8.6 1.4 1.4 1.4.8 0 1.4-.6 1.4-1.4 0-.8-.7-1.4-1.4-1.4z"/></g></svg>