<svg width="62" height="62" fill="none" xmlns="http://www.w3.org/2000/svg"><path d="M15.469 25.309h-3.844a1.817 1.817 0 00-1.816 1.822l.026 13.798a1.816 1.816 0 103.633 0v-4.19c.743-.003 1.536-.007 2-.007 3.192 0 5.789-2.562 5.789-5.712s-2.597-5.711-5.788-5.711zm0 7.79c-.469 0-1.265.004-2.01.008a370.35 370.35 0 01-.008-2.087l-.004-2.079h2.022c1.168 0 2.155.952 2.155 2.08 0 1.127-.987 2.078-2.155 2.078zm15.45-7.79h-3.794a1.816 1.816 0 00-1.816 1.82l.027 13.398a1.817 1.817 0 001.816 1.81h.007c.115 0 2.82-.011 3.903-.03 4.104-.072 7.083-3.64 7.083-8.484 0-5.093-2.904-8.514-7.226-8.514zm.08 13.366c-.471.008-1.28.015-2.037.02-.005-1.578-.014-8.114-.017-9.754h1.974c3.334 0 3.593 3.737 3.593 4.882 0 2.384-1.087 4.81-3.514 4.852zm19.117-9.874a1.816 1.816 0 000-3.632h-5.553a1.816 1.816 0 00-1.817 1.816v13.703a1.816 1.816 0 003.633 0v-5.165h3.296a1.816 1.816 0 000-3.633H46.38v-3.089h3.737z" fill="#000"/><path d="M55.46 17.559h-1.33v-.519a9.046 9.046 0 00-2.491-6.248l-7.545-7.959A9.12 9.12 0 0037.503 0H13.32a5.455 5.455 0 00-5.449 5.45v12.109H6.54a5.455 5.455 0 00-5.45 5.449v21.797a5.455 5.455 0 005.45 5.449h1.332v6.297A5.455 5.455 0 0013.321 62H48.68a5.455 5.455 0 005.449-5.45v-6.296h1.332a5.455 5.455 0 005.45-5.45V23.009a5.455 5.455 0 00-5.45-5.45zM11.505 5.449c0-1.001.815-1.816 1.816-1.816h24.182c1.489 0 2.93.62 3.955 1.7L49 13.291a5.427 5.427 0 011.495 3.75v.518H11.504V5.449zm38.992 51.102a1.818 1.818 0 01-1.816 1.816H13.32a1.818 1.818 0 01-1.816-1.816v-6.297h38.992v6.297zm6.781-11.746a1.818 1.818 0 01-1.816 1.816H6.539a1.818 1.818 0 01-1.816-1.816V23.008c0-1.002.814-1.817 1.816-1.817h48.922c1.002 0 1.816.815 1.816 1.817v21.797z" fill="#000"/></svg>