<svg width="22" height="22" fill="none" xmlns="http://www.w3.org/2000/svg"><g clip-path="url(#clip0)"><path d="M21.873 4.596a.705.705 0 00-.549-.301L7.678 3.707a.706.706 0 10-.06 1.41l12.722.549-2.502 7.805H6.706L4.695 2.52a.706.706 0 00-.437-.53L.964.696A.707.707 0 00.448 2.01l2.929 1.15 2.046 11.144a.706.706 0 00.695.578h.34l-.776 2.154a.587.587 0 00.553.787h.544a2.105 2.105 0 00-.544 1.412 2.12 2.12 0 002.118 2.118 2.12 2.12 0 002.118-2.118c0-.543-.207-1.037-.544-1.412h4.617A2.105 2.105 0 0014 19.235a2.12 2.12 0 002.118 2.118 2.12 2.12 0 002.117-2.118c0-.543-.206-1.037-.543-1.412h.66a.588.588 0 100-1.176H7.073l.636-1.765h10.645a.705.705 0 00.672-.49l2.941-9.177a.704.704 0 00-.093-.619zm-13.52 15.58a.942.942 0 010-1.882.942.942 0 010 1.883zm7.765 0a.942.942 0 010-1.882.942.942 0 010 1.883z" fill="#fff"/></g><defs><clipPath id="clip0"><path fill="#fff" d="M0 0h22v22H0z"/></clipPath></defs></svg>