<svg width="23" height="23" fill="none" xmlns="http://www.w3.org/2000/svg"><path d="M17.218.009H5.764A5.776 5.776 0 000 5.772v11.473C0 20.4 2.59 22.99 5.764 22.99h11.472A5.776 5.776 0 0023 17.227V5.772C22.982 2.6 20.392.01 17.218.01zM17.2 8.618V9c0 3.83-2.955 8.244-8.372 8.244-1.66 0-3.21-.474-4.505-1.295.237.018.456.037.693.037a5.875 5.875 0 003.648-1.24A2.939 2.939 0 015.91 12.74a2.811 2.811 0 001.331-.055A2.915 2.915 0 014.925 9.84v-.037c.364.22.839.347 1.313.365a2.885 2.885 0 01-1.313-2.407c0-.53.146-1.022.4-1.46a8.426 8.426 0 006.056 3.028 2.686 2.686 0 01-.072-.656c0-1.606 1.313-2.9 2.936-2.9.84 0 1.605.346 2.152.911a5.475 5.475 0 001.86-.71 2.969 2.969 0 01-1.294 1.604 5.827 5.827 0 001.696-.456 5.989 5.989 0 01-1.46 1.496z" fill="#C1C1C1"/></svg>