<svg width="32" height="19" fill="none" xmlns="http://www.w3.org/2000/svg"><path d="M26.554 10.895c-.517-.665-.37-.96 0-1.555.007-.007 4.278-6.014 4.718-8.05l.002-.002c.22-.742 0-1.288-1.057-1.288h-3.499c-.89 0-1.301.468-1.521.992 0 0-1.781 4.34-4.302 7.154-.813.813-1.189 1.073-1.633 1.073-.219 0-.559-.26-.559-1.003V1.288c0-.89-.249-1.288-.986-1.288h-5.502c-.559 0-.89.415-.89.802 0 .844 1.26 1.038 1.39 3.413v5.153c0 1.13-.201 1.337-.648 1.337-1.19 0-4.076-4.358-5.787-9.345C5.935.392 5.598 0 4.7 0H1.2C.201.001 0 .47 0 .993c0 .926 1.19 5.528 5.53 11.608C8.425 16.751 12.5 19 16.207 19c2.228 0 2.5-.5 2.5-1.358 0-3.966-.201-4.34.915-4.34.517 0 1.408.26 3.488 2.262C25.486 17.937 25.877 19 27.208 19h3.498c.998 0 1.503-.5 1.212-1.485-.665-2.072-5.161-6.335-5.364-6.62z" fill="#C1C1C1"/></svg>